<svg width="37" height="37" viewBox="0 0 37 37" fill="none" xmlns="http://www.w3.org/2000/svg">
<path fill-rule="evenodd" clip-rule="evenodd" d="M3.01718 3.01727C2.61707 3.01727 2.23334 3.17622 1.95041 3.45914C1.66749 3.74207 1.50854 4.12579 1.50854 4.52591C1.50854 4.92602 1.66749 5.30975 1.95041 5.59268C2.23334 5.8756 2.61707 6.03455 3.01718 6.03455H3.72926C4.06029 6.03448 4.38216 6.14329 4.64525 6.34422C4.90833 6.54515 5.09803 6.82703 5.18509 7.14641L5.81268 9.44859L9.05172 21.3216V24.1382C9.05172 25.1852 9.40625 26.1477 10.0022 26.9141C9.57565 27.3949 9.2791 27.9768 9.14067 28.6045C9.00224 29.2322 9.02652 29.8848 9.21121 30.5005C9.3959 31.1161 9.73487 31.6744 10.1959 32.1222C10.657 32.5701 11.2249 32.8926 11.8457 33.0593C12.4664 33.226 13.1195 33.2313 13.7429 33.0746C14.3663 32.918 14.9393 32.6046 15.4075 32.1643C15.8758 31.724 16.2237 31.1713 16.4183 30.5587C16.6129 29.9461 16.6477 29.2939 16.5195 28.6641H21.1962C21.0791 29.24 21.0981 29.8353 21.2518 30.4025C21.4055 30.9698 21.6896 31.4932 22.0815 31.9312C22.4735 32.3691 22.9623 32.7094 23.509 32.9249C24.0558 33.1404 24.6453 33.2252 25.2307 33.1724C25.816 33.1197 26.3809 32.9309 26.8803 32.6211C27.3797 32.3113 27.7998 31.8891 28.1071 31.3881C28.4144 30.8871 28.6003 30.3213 28.6501 29.7357C28.6999 29.1501 28.6122 28.561 28.3939 28.0154C28.5509 27.7891 28.6429 27.5243 28.6601 27.2494C28.6772 26.9746 28.6189 26.7004 28.4913 26.4564C28.3637 26.2123 28.1717 26.0079 27.9362 25.8652C27.7008 25.7225 27.4307 25.647 27.1554 25.6468H13.5791C13.179 25.6468 12.7953 25.4879 12.5124 25.2049C12.2294 24.922 12.0705 24.5383 12.0705 24.1382V22.6295H27.5129C28.175 22.6297 28.8187 22.412 29.3449 22.0102C29.8711 21.6083 30.2504 21.0446 30.4246 20.4058L32.8912 11.354C33.0133 10.9061 33.0304 10.4361 32.9412 9.98054C32.8519 9.52497 32.6588 9.09613 32.3768 8.7274C32.0947 8.35866 31.7314 8.05998 31.3151 7.85458C30.8988 7.64919 30.4407 7.54262 29.9765 7.54318H8.42111L8.09676 6.35136C7.83529 5.39349 7.26609 4.54819 6.47686 3.9457C5.68763 3.34321 4.72217 3.01698 3.72926 3.01727H3.01718ZM24.8924 28.6641C24.6923 28.6641 24.5005 28.7436 24.359 28.885C24.2176 29.0265 24.1381 29.2183 24.1381 29.4184C24.1381 29.6185 24.2176 29.8103 24.359 29.9518C24.5005 30.0932 24.6923 30.1727 24.8924 30.1727C25.0925 30.1727 25.2843 30.0932 25.4258 29.9518C25.5672 29.8103 25.6467 29.6185 25.6467 29.4184C25.6467 29.2183 25.5672 29.0265 25.4258 28.885C25.2843 28.7436 25.0925 28.6641 24.8924 28.6641ZM27.5114 19.6123H11.713L9.24332 10.5605H29.978L27.5114 19.6123ZM12.8233 28.6641C12.6233 28.6641 12.4314 28.7436 12.2899 28.885C12.1485 29.0265 12.069 29.2183 12.069 29.4184C12.069 29.6185 12.1485 29.8103 12.2899 29.9518C12.4314 30.0932 12.6233 30.1727 12.8233 30.1727C13.0234 30.1727 13.2152 30.0932 13.3567 29.9518C13.4982 29.8103 13.5776 29.6185 13.5776 29.4184C13.5776 29.2183 13.4982 29.0265 13.3567 28.885C13.2152 28.7436 13.0234 28.6641 12.8233 28.6641Z" fill="black"/>
</svg>
