<svg width="31" height="30" viewBox="0 0 31 30" fill="none" xmlns="http://www.w3.org/2000/svg">
<path fill-rule="evenodd" clip-rule="evenodd" d="M6.23852 10.5743C6.46862 10.3443 6.78066 10.215 7.10601 10.215C7.43137 10.215 7.74341 10.3443 7.9735 10.5743L15.695 18.2958L23.4166 10.5743C23.5297 10.4571 23.6651 10.3636 23.8148 10.2993C23.9645 10.235 24.1255 10.2012 24.2885 10.1998C24.4514 10.1983 24.613 10.2294 24.7638 10.2911C24.9145 10.3528 25.0515 10.4439 25.1668 10.5591C25.282 10.6743 25.3731 10.8113 25.4348 10.9621C25.4965 11.1129 25.5275 11.2745 25.5261 11.4374C25.5247 11.6003 25.4908 11.7613 25.4265 11.911C25.3622 12.0607 25.2687 12.1961 25.1515 12.3093L16.5625 20.8983C16.3324 21.1283 16.0204 21.2575 15.695 21.2575C15.3697 21.2575 15.0576 21.1283 14.8275 20.8983L6.23852 12.3093C6.00849 12.0792 5.87927 11.7671 5.87927 11.4418C5.87927 11.1164 6.00849 10.8044 6.23852 10.5743V10.5743Z" fill="white"/>
</svg>
