<svg width="1920" height="926" viewBox="0 0 1920 926" fill="none" xmlns="http://www.w3.org/2000/svg">
<g filter="url(#filter0_f_4_48)">
<ellipse cx="960.272" cy="463.007" rx="1241" ry="290.007" transform="rotate(-14.0702 960.272 463.007)" fill="#D8CBB8" fill-opacity="0.3"/>
<path d="M2139.79 167.384C2142.78 179.305 2141.1 194.085 2131.54 212.726C2121.89 231.559 2104.88 252.885 2079.84 276.226C2029.78 322.895 1951.53 374.064 1849.88 426.356C1646.96 530.751 1355.82 637.075 1024.7 720.064C693.578 803.052 386.709 846.607 158.533 850.258C44.2405 852.087 -48.892 843.872 -115.047 826.33C-148.134 817.557 -173.197 806.777 -190.591 794.723C-207.808 782.791 -216.258 770.55 -219.246 758.629C-222.234 746.708 -220.555 731.929 -211.001 713.288C-201.348 694.455 -184.332 673.128 -159.294 649.787C-109.232 603.118 -30.983 551.949 70.6622 499.658C273.589 395.263 564.726 288.939 895.846 205.95C1226.97 122.962 1533.84 79.4073 1762.01 75.7556C1876.3 73.9264 1969.44 82.1421 2035.59 99.6835C2068.68 108.457 2093.74 119.237 2111.13 131.291C2128.35 143.223 2136.8 155.463 2139.79 167.384Z" stroke="#7DB249" stroke-opacity="0.3" stroke-width="50"/>
</g>
<defs>
<filter id="filter0_f_4_48" x="-295.596" y="0.505127" width="2511.74" height="925.004" filterUnits="userSpaceOnUse" color-interpolation-filters="sRGB">
<feFlood flood-opacity="0" result="BackgroundImageFix"/>
<feBlend mode="normal" in="SourceGraphic" in2="BackgroundImageFix" result="shape"/>
<feGaussianBlur stdDeviation="25" result="effect1_foregroundBlur_4_48"/>
</filter>
</defs>
</svg>
