<svg width="30" height="31" viewBox="0 0 30 31" fill="none" xmlns="http://www.w3.org/2000/svg">
<path fill-rule="evenodd" clip-rule="evenodd" d="M5.6676 10.7757C5.8977 10.5457 6.20973 10.4165 6.53509 10.4165C6.86045 10.4165 7.17248 10.5457 7.40258 10.7757L15.1241 18.4972L22.8456 10.7757C22.9588 10.6585 23.0942 10.565 23.2439 10.5007C23.3936 10.4364 23.5546 10.4026 23.7175 10.4012C23.8805 10.3998 24.042 10.4308 24.1928 10.4925C24.3436 10.5542 24.4806 10.6453 24.5958 10.7605C24.711 10.8757 24.8021 11.0127 24.8638 11.1635C24.9255 11.3143 24.9566 11.4759 24.9552 11.6388C24.9537 11.8017 24.9199 11.9627 24.8556 12.1124C24.7913 12.2621 24.6978 12.3975 24.5806 12.5107L15.9916 21.0997C15.7615 21.3297 15.4495 21.459 15.1241 21.459C14.7988 21.459 14.4867 21.3297 14.2566 21.0997L5.6676 12.5107C5.43757 12.2806 5.30835 11.9686 5.30835 11.6432C5.30835 11.3178 5.43757 11.0058 5.6676 10.7757Z" fill="black"/>
</svg>
