<svg width="37" height="37" viewBox="0 0 37 37" fill="none" xmlns="http://www.w3.org/2000/svg">
<path fill-rule="evenodd" clip-rule="evenodd" d="M24.1383 9.05188C22.938 9.05188 21.7868 9.52871 20.938 10.3775C20.0892 11.2263 19.6124 12.3774 19.6124 13.5778C19.6124 14.7781 20.0892 15.9293 20.938 16.7781C21.7868 17.6269 22.938 18.1037 24.1383 18.1037C25.3387 18.1037 26.4898 17.6269 27.3386 16.7781C28.1874 15.9293 28.6642 14.7781 28.6642 13.5778C28.6642 12.3774 28.1874 11.2263 27.3386 10.3775C26.4898 9.52871 25.3387 9.05188 24.1383 9.05188ZM16.5951 13.5778C16.5951 12.3482 16.8957 11.1372 17.4707 10.0504C18.0458 8.96349 18.8778 8.03366 19.8943 7.34185C20.9108 6.65003 22.081 6.21721 23.3031 6.08105C24.5251 5.9449 25.7619 6.10956 26.9058 6.56068C28.0496 7.0118 29.0659 7.73571 29.866 8.66937C30.6661 9.60303 31.2259 10.7181 31.4965 11.9176C31.7671 13.117 31.7405 14.3645 31.4188 15.5512C31.0971 16.738 30.4902 17.8282 29.6509 18.7268C32.2102 19.5593 34.4229 21.214 35.9449 23.4337C36.1572 23.7644 36.2321 24.1648 36.1537 24.5498C36.0753 24.9349 35.8498 25.2741 35.5251 25.4954C35.2004 25.7167 34.8022 25.8026 34.4151 25.7348C34.0281 25.667 33.6828 25.4509 33.4526 25.1324C31.9802 22.9721 29.2948 21.121 25.6469 21.121C19.8628 21.121 16.5951 25.7585 16.5951 28.6641C16.5951 29.0643 16.4362 29.448 16.1533 29.7309C15.8703 30.0138 15.4866 30.1728 15.0865 30.1728C14.6864 30.1728 14.3027 30.0138 14.0197 29.7309C13.7368 29.448 13.5779 29.0643 13.5779 28.6641C13.5779 27.6202 13.8162 26.5068 14.2718 25.41C14.1534 25.3333 14.0462 25.2404 13.9535 25.1339C12.7149 23.7249 10.7929 22.6296 8.29763 22.6296C5.80235 22.6296 3.88035 23.7249 2.64176 25.1339C2.37356 25.4188 2.00519 25.5884 1.61436 25.6068C1.22354 25.6252 0.840842 25.4911 0.547035 25.2327C0.253227 24.9743 0.0712908 24.6119 0.0396215 24.2219C0.00795213 23.832 0.129027 23.4449 0.377294 23.1425C1.26817 22.1286 2.34845 21.2984 3.5575 20.6985C2.59153 19.7558 1.9285 18.5466 1.6531 17.2252C1.3777 15.9038 1.50242 14.5304 2.01135 13.2803C2.52028 12.0301 3.3903 10.9601 4.51029 10.2068C5.63027 9.45348 6.94939 9.05114 8.29914 9.05114C9.64889 9.05114 10.968 9.45348 12.088 10.2068C13.208 10.9601 14.078 12.0301 14.5869 13.2803C15.0959 14.5304 15.2206 15.9038 14.9452 17.2252C14.6698 18.5466 14.0068 19.7558 13.0408 20.6985C14.0874 21.218 15.0387 21.9107 15.8544 22.7473C16.879 21.458 18.1537 20.3891 19.6018 19.6048C18.6673 18.9025 17.909 17.9922 17.3872 16.9461C16.8653 15.9 16.5941 14.7468 16.5951 13.5778ZM4.52604 15.8407C4.52604 14.8405 4.92341 13.8811 5.63072 13.1738C6.33803 12.4665 7.29734 12.0692 8.29763 12.0692C9.29792 12.0692 10.2572 12.4665 10.9645 13.1738C11.6719 13.8811 12.0692 14.8405 12.0692 15.8407C12.0692 16.841 11.6719 17.8003 10.9645 18.5077C10.2572 19.215 9.29792 19.6123 8.29763 19.6123C7.29734 19.6123 6.33803 19.215 5.63072 18.5077C4.92341 17.8003 4.52604 16.841 4.52604 15.8407Z" fill="black"/>
</svg>
