<svg width="37" height="37" viewBox="0 0 37 37" fill="none" xmlns="http://www.w3.org/2000/svg">
<path fill-rule="evenodd" clip-rule="evenodd" d="M12.8233 10.5604C10.7263 10.5604 9.0517 12.2395 9.0517 14.2822C9.0517 16.5814 10.3823 19.0344 12.4401 21.4377C14.169 23.4547 16.269 25.2742 18.1035 26.7421C19.938 25.2742 22.038 23.4532 23.7669 21.4377C25.8247 19.0344 27.1553 16.5799 27.1553 14.2822C27.1553 12.2395 25.4807 10.5604 23.3837 10.5604C21.2867 10.5604 19.6121 12.2395 19.6121 14.2822C19.6121 14.6824 19.4532 15.0661 19.1703 15.349C18.8874 15.6319 18.5036 15.7909 18.1035 15.7909C17.7034 15.7909 17.3197 15.6319 17.0367 15.349C16.7538 15.0661 16.5949 14.6824 16.5949 14.2822C16.5949 12.2395 14.9203 10.5604 12.8233 10.5604ZM18.1035 10.046C17.4647 9.26263 16.6593 8.63152 15.7459 8.19857C14.8325 7.76563 13.8341 7.54173 12.8233 7.54316C9.0879 7.54316 6.03442 10.5453 6.03442 14.2822C6.03442 17.6782 7.94587 20.8297 10.1485 23.4004C12.3828 26.0089 15.1224 28.2552 17.1772 29.8544C17.442 30.0604 17.768 30.1722 18.1035 30.1722C18.439 30.1722 18.765 30.0604 19.0298 29.8544C21.0846 28.2552 23.8243 26.0074 26.0585 23.4004C28.2612 20.8297 30.1726 17.6782 30.1726 14.2822C30.1726 10.5453 27.1191 7.54316 23.3837 7.54316C21.2566 7.54316 19.3496 8.51774 18.1035 10.046Z" fill="black"/>
</svg>
