<svg width="29" height="29" viewBox="0 0 29 29" fill="none" xmlns="http://www.w3.org/2000/svg">
<path d="M23.406 6.43717L22.5491 5.58025C22.3069 5.33807 21.8598 5.37534 21.5803 5.71062L18.5993 8.67277C17.2578 8.0953 15.7862 7.81585 14.2398 7.81585C9.63805 7.83441 5.65146 10.5171 3.73242 14.3738C3.62061 14.616 3.62061 14.914 3.73242 15.1189C4.62659 16.9447 5.96804 18.4538 7.64475 19.5901L5.20422 22.0679C4.92476 22.3474 4.88749 22.7944 5.07385 23.0366L5.93077 23.8936C6.17295 24.1357 6.62006 24.0985 6.89951 23.7632L23.2567 7.40607C23.6107 7.12677 23.6479 6.67969 23.4057 6.43749L23.406 6.43717ZM15.2272 12.0633C14.9105 11.9888 14.5752 11.8957 14.2585 11.8957C12.6749 11.8957 11.4081 13.1626 11.4081 14.746C11.4081 15.0628 11.4827 15.398 11.5758 15.7148L10.3274 16.9444C9.95488 16.2924 9.74996 15.5657 9.74996 14.7461C9.74996 12.2683 11.7434 10.2748 14.2212 10.2748C15.041 10.2748 15.7675 10.4797 16.4195 10.8523L15.2272 12.0633Z" fill="#666666" fill-opacity="0.8"/>
<path d="M24.7473 14.3738C24.0953 13.0696 23.2383 11.896 22.1765 10.9458L18.7112 14.3738V14.7463C18.7112 17.2241 16.7177 19.2175 14.24 19.2175H13.8674L11.6691 21.4159C12.4889 21.5835 13.3458 21.6953 14.1841 21.6953C18.7859 21.6953 22.7725 19.0126 24.6916 15.1374C24.8592 14.8765 24.8592 14.6158 24.7474 14.3736L24.7473 14.3738Z" fill="#666666" fill-opacity="0.8"/>
</svg>
