<svg width="183" height="176" viewBox="0 0 183 176" fill="none" xmlns="http://www.w3.org/2000/svg">
<path fill-rule="evenodd" clip-rule="evenodd" d="M157.885 88C157.885 85.5712 156.527 83.963 153.811 80.7465C143.262 68.2529 119.173 44 91.1445 44C63.1158 44 39.0272 68.2529 28.4777 80.7465C25.7618 83.963 24.4038 85.5712 24.4038 88C24.4038 90.4288 25.7618 92.037 28.4777 95.2535C39.0272 107.747 63.1158 132 91.1445 132C119.173 132 143.262 107.747 153.811 95.2535C156.527 92.037 157.885 90.4288 157.885 88ZM91.1445 110C103.729 110 113.93 100.15 113.93 88C113.93 75.8497 103.729 66 91.1445 66C78.5603 66 68.3588 75.8497 68.3588 88C68.3588 100.15 78.5603 110 91.1445 110Z" fill="#33363F"/>
</svg>
