<svg width="23" height="23" viewBox="0 0 23 23" fill="none" xmlns="http://www.w3.org/2000/svg">
<path fill-rule="evenodd" clip-rule="evenodd" d="M5.2569 5.2732C5.42816 5.10198 5.66042 5.0058 5.90259 5.0058C6.14475 5.0058 6.37701 5.10198 6.54827 5.2732L11.3823 10.1072L16.2162 5.2732C16.3005 5.18597 16.4013 5.1164 16.5127 5.06853C16.6241 5.02067 16.744 4.99547 16.8652 4.99442C16.9865 4.99337 17.1067 5.01647 17.219 5.06239C17.3312 5.10831 17.4332 5.17613 17.5189 5.26188C17.6047 5.34763 17.6725 5.4496 17.7184 5.56184C17.7643 5.67407 17.7875 5.79434 17.7864 5.9156C17.7853 6.03686 17.7602 6.1567 17.7123 6.26813C17.6644 6.37955 17.5949 6.48033 17.5076 6.56457L12.6736 11.3986L17.5076 16.2325C17.674 16.4048 17.766 16.6355 17.764 16.8749C17.7619 17.1144 17.6658 17.3435 17.4965 17.5128C17.3272 17.6821 17.0981 17.7782 16.8586 17.7803C16.6192 17.7823 16.3885 17.6903 16.2162 17.5239L11.3823 12.6899L6.54827 17.5239C6.37603 17.6903 6.14533 17.7823 5.90587 17.7803C5.66641 17.7782 5.43735 17.6821 5.26802 17.5128C5.09869 17.3435 5.00264 17.1144 5.00056 16.8749C4.99848 16.6355 5.09054 16.4048 5.2569 16.2325L10.0909 11.3986L5.2569 6.56457C5.08568 6.39331 4.9895 6.16106 4.9895 5.91889C4.9895 5.67672 5.08568 5.44446 5.2569 5.2732Z" fill="black"/>
</svg>
